<svg width="25" height="34" viewBox="0 0 25 34" fill="none" xmlns="http://www.w3.org/2000/svg">
<g clip-path="url(#clip0_126_623)">
<path d="M10.9923 30.5371C11.8034 31.3482 13.1207 31.3482 13.9318 30.5371L24.3142 20.1547C25.1253 19.3436 25.1253 18.0263 24.3142 17.2152C23.5031 16.4041 22.1858 16.4041 21.3747 17.2152L14.5353 24.0611V4.15289C14.5353 3.00434 13.6074 2.07642 12.4588 2.07642C11.3103 2.07642 10.3823 3.00434 10.3823 4.15289V24.0546L3.54297 17.2217C2.73184 16.4106 1.41458 16.4106 0.603459 17.2217C-0.207663 18.0328 -0.207663 19.3501 0.603459 20.1612L10.9858 30.5436L10.9923 30.5371Z" fill="#291953"/>
</g>
<defs>
<clipPath id="clip0_126_623">
<rect width="24.9177" height="33.2236" fill="white"/>
</clipPath>
</defs>
</svg>
